<?xml version="1.0" standalone="no"?>
<!DOCTYPE svg PUBLIC "-//W3C//DTD SVG 20010904//EN"
 "http://www.w3.org/TR/2001/REC-SVG-20010904/DTD/svg10.dtd">
<svg version="1.0" xmlns="http://www.w3.org/2000/svg"
 width="100.000000pt" height="100.000000pt" viewBox="0 0 100.000000 100.000000"
 preserveAspectRatio="xMidYMid meet">

<g transform="translate(0.000000,100.000000) scale(0.100000,-0.100000)"
fill="#000000" stroke="none">
<path d="M585 778 l-190 -71 -160 -6 -159 -6 -6 -25 c-3 -15 -18 -31 -37 -40
l-33 -15 0 -157 0 -158 26 -6 c17 -4 31 -18 40 -40 9 -22 21 -34 33 -34 10 0
21 -7 25 -15 3 -9 18 -15 35 -15 18 0 38 -9 50 -21 l20 -22 103 37 103 36 208
0 208 0 10 29 c6 17 22 34 40 41 26 11 29 17 29 61 0 26 5 51 10 54 6 3 10 17
10 31 0 14 11 36 25 50 l25 25 -53 147 -52 147 -39 6 c-21 3 -43 14 -48 23 -5
9 -14 16 -21 15 -7 0 -97 -32 -202 -71z m220 32 c10 -11 31 -20 46 -20 30 0
25 10 94 -182 15 -43 24 -83 21 -90 -35 -68 -36 -67 -36 17 l0 80 -33 15 c-19
9 -34 25 -37 40 l-6 25 -208 5 -208 5 168 62 c93 34 172 62 175 62 3 1 14 -8
24 -19z m43 -158 c7 -16 23 -34 37 -40 25 -12 25 -12 25 -157 0 -105 -3 -145
-12 -145 -16 0 -58 -41 -58 -57 0 -11 -70 -13 -375 -13 -282 0 -375 3 -375 12
0 16 -41 58 -57 58 -10 0 -13 31 -13 145 l0 144 30 16 c16 8 33 27 36 40 l6
25 372 0 371 0 13 -28z m-547 -458 c-64 -25 -64 -25 -85 -5 -12 11 -34 21 -51
24 -16 2 22 4 85 5 l115 1 -64 -25z"/>
<path d="M80 460 l0 -150 385 0 385 0 0 150 0 150 -385 0 -385 0 0 -150z m750
-5 l0 -135 -365 0 -365 0 0 135 0 135 365 0 365 0 0 -135z"/>
</g>
</svg>
